/* XPM */
static char *Group_11730501998[] = {
/* columns rows colors chars-per-pixel */
"50 50 173 2 ",
"   c black",
".  c #010202",
"X  c #030202",
"o  c #020305",
"O  c #040505",
"+  c #040708",
"@  c #09080A",
"#  c #0E0A0A",
"$  c #0A0A0D",
"%  c #0D0C0E",
"&  c #160E0A",
"*  c #1A100D",
"=  c #040813",
"-  c #070C11",
";  c #0E131E",
":  c #0D141D",
">  c #0E141E",
",  c #111010",
"<  c #101012",
"1  c #141311",
"2  c #111417",
"3  c #171418",
"4  c #11141C",
"5  c #19191A",
"6  c #1C1A1B",
"7  c #2C1B10",
"8  c #26171A",
"9  c #211B1E",
"0  c #271A1E",
"q  c #301F12",
"w  c #302318",
"e  c #101221",
"r  c #121621",
"t  c #161B24",
"y  c #121F29",
"u  c #361B24",
"i  c #1A242A",
"p  c #162030",
"a  c #1E2A38",
"s  c #292425",
"d  c #212028",
"f  c #28272A",
"g  c #312B24",
"h  c #242A30",
"j  c #2A2C31",
"k  c #2B3036",
"l  c #2E3539",
"z  c #303232",
"x  c #353538",
"c  c #3A3B3E",
"v  c #462A2F",
"b  c #5A332F",
"n  c #533333",
"m  c #682D2E",
"M  c #623529",
"N  c #7A3C2A",
"B  c #733E39",
"V  c #61463A",
"C  c #6D453A",
"Z  c #744C3B",
"A  c #7A523E",
"S  c #182948",
"D  c #2E3A43",
"F  c #233048",
"G  c #3D3E46",
"H  c #374047",
"J  c #3B444D",
"K  c #3A464C",
"L  c #2E4252",
"P  c #374153",
"I  c #394751",
"U  c #394452",
"Y  c #274063",
"T  c #2C4B6B",
"R  c #394765",
"E  c #344D64",
"W  c #394D66",
"Q  c #30516B",
"!  c #3A506E",
"~  c #39576F",
"^  c #394E71",
"/  c #3A4E72",
"(  c #3B5676",
")  c #434448",
"_  c #454F55",
"`  c #484B52",
"'  c #424E58",
"]  c #444F58",
"[  c #4A5255",
"{  c #42515A",
"}  c #44535E",
"|  c #4C5358",
" . c #48535D",
".. c #565657",
"X. c #50585D",
"o. c #765942",
"O. c #7E6E59",
"+. c #404F69",
"@. c #4F5A64",
"#. c #556269",
"$. c #57647B",
"%. c #726364",
"&. c #757067",
"*. c #7D7A6B",
"=. c #606871",
"-. c #616B70",
";. c #83432D",
":. c #8B4A31",
">. c #8B5538",
",. c #B2522F",
"<. c #AF5335",
"1. c #AE5B3B",
"2. c #DC6420",
"3. c #D9612A",
"4. c #D56E36",
"5. c #E66B25",
"6. c #E26C2B",
"7. c #ED712B",
"8. c #AC7653",
"9. c #E17940",
"0. c #C2895E",
"q. c #D38A55",
"w. c #E98950",
"e. c #DC9661",
"r. c #C69C75",
"t. c #F4AE74",
"y. c #486183",
"u. c #516E88",
"i. c #4F718B",
"p. c #546E91",
"a. c #667683",
"s. c #607685",
"d. c #767D8A",
"f. c #607992",
"g. c #607B9C",
"h. c #597EAA",
"j. c #5F80A6",
"k. c #6182A1",
"l. c #6383A4",
"z. c #6E8AA3",
"x. c #6B8DAB",
"c. c #6A92AC",
"v. c #648EB1",
"b. c #618EB9",
"n. c #6892B1",
"m. c #729BB8",
"M. c #7A9FBD",
"N. c #76A1B3",
"B. c #70A0BE",
"V. c #858F93",
"C. c #999A9B",
"Z. c #A09694",
"A. c #93A7B6",
"S. c #90ABBE",
"D. c #97ACBD",
"F. c #B2B0A9",
"G. c #E4BA94",
"H. c #D2BDA0",
"J. c #C5C7BA",
"K. c #8DB3CA",
"L. c #91B7CF",
"P. c #95C8D4",
"I. c #9DC9D5",
"U. c #A1CEDB",
"Y. c #A7CFDB",
"T. c #A1CBDE",
"R. c #A8CADB",
"E. c #A8CBDB",
"W. c #B8D2DB",
"Q. c #ADCCE2",
"!. c #C3CEC5",
"~. c #DADFD3",
"^. c #C3E2EC",
/* pixels */
"                                                                                                    ",
"                                                                                                    ",
"                                                                                                    ",
"                                                                                                    ",
"                                                                                                    ",
"                                                                                                    ",
"                                                                                                    ",
"                                                                                                    ",
"                                                                                                    ",
"                                                                                                    ",
"                                                                                                    ",
"                                                                                                    ",
"                                          1 g w q 7 &                                               ",
"                                        O *.H.r.0.8.V @ o                                           ",
"                                      X.V.!.~.J.F.C.d.$.P                                           ",
"                                      =.A.W.^.E.L.M.l.p.+.                                          ",
"                                      U f.S.K.N.x.h.y.^ F                                           ",
"                                      t E i.p.i.$.( L S e o                                         ",
"                                        y E ~ Q T Y S =                                             ",
"                                        } Q.Q.m.v.h.Q :                                             ",
"                                        { Y.U.N.c.k.! >                                             ",
"                                        ' I.P.m.n.j./ ;                                             ",
"                                        +.E.U.m.b.h./ 4                                             ",
"                                        J D.S.z.g.p.R r                                             ",
"                                      5 ) &.O.o.Z C n 8 #                                           ",
"                                      ..Z.G.t.w.9.4.1.B v                                           ",
"                                      z &.e.w.7.5.2.,.m u                                           ",
"                                    o z %.q.7.6.6.3.<.b 0                                           ",
"                                      % s o.>.:.;.N M *                                             ",
"                                            i h p -                                                 ",
"                                            L k.( E                                                 ",
"                                          z _ 4 d x 6                                               ",
"                                          5 H 3 0 f <                                               ",
"                                          < x x c 6 $                                               ",
"                                          [ X.X + X.l                                               ",
"                                          #.=.[ | #.J                                               ",
"                                          H 2   + i D                                               ",
"                                        j s.G j k } s.h                                             ",
"                                        ` @.@.] ] { I K                                             ",
"                                                      o                                             ",
"                                                                                                    ",
"                                                                                                    ",
"                                                                                                    ",
"                                                                                                    ",
"                                                                                                    ",
"                                                                                                    ",
"                                                                                                    ",
"                                                                                                    ",
"                                                                                                    ",
"                                                                                                    "
};
