/* XPM */
static char *Group_31730501998[] = {
/* columns rows colors chars-per-pixel */
"50 50 221 2 ",
"   c #000000",
".  c #0B0503",
"X  c #090A0A",
"o  c #150A05",
"O  c #1C0D0A",
"+  c #0B0E13",
"@  c #0D1012",
"#  c #15171A",
"$  c #29150B",
"%  c #32180E",
"&  c #271916",
"*  c #381A13",
"=  c #3D2512",
"-  c #131925",
";  c #2B1E21",
":  c #1E2127",
">  c #1C2639",
",  c #25282B",
"<  c #252B36",
"1  c #2D323B",
"2  c #353C3E",
"3  c #461E17",
"4  c #482215",
"5  c #5D2A17",
"6  c #543216",
"7  c #78391A",
"8  c #5A3223",
"9  c #692C22",
"0  c #6D3A2A",
"q  c #7A3825",
"w  c #6E4B35",
"e  c #644539",
"r  c #6B5232",
"t  c #7E6035",
"y  c #1F2E46",
"u  c #252E47",
"i  c #24344A",
"p  c #2B3548",
"a  c #323849",
"s  c #2A3955",
"d  c #293856",
"f  c #343B55",
"g  c #354456",
"h  c #394B68",
"j  c #3C576F",
"k  c #314875",
"l  c #3A4E71",
"z  c #3C5671",
"x  c #3E5E7A",
"c  c #46494B",
"v  c #444E5D",
"b  c #4B4C59",
"n  c #545757",
"m  c #675B5A",
"M  c #68615D",
"N  c #475965",
"B  c #515E6C",
"V  c #445A76",
"C  c #55646B",
"Z  c #4C697F",
"A  c #5E6D7A",
"S  c #6E696F",
"D  c #843A1E",
"F  c #843A24",
"G  c #9A3E27",
"H  c #A33E22",
"J  c #89411E",
"K  c #944D1F",
"L  c #8E4324",
"P  c #914624",
"I  c #86532D",
"U  c #9A5624",
"Y  c #854938",
"T  c #984D34",
"R  c #8A5937",
"E  c #B6472A",
"W  c #A35728",
"Q  c #AC542E",
"!  c #B95A2D",
"~  c #AB4A34",
"^  c #B44D32",
"/  c #946231",
"(  c #BA6A2A",
")  c #AC6E33",
"_  c #C45728",
"`  c #D45528",
"'  c #E2592A",
"]  c #C76927",
"[  c #D46828",
"{  c #C1732C",
"}  c #D07532",
"|  c #D9763C",
" . c #E66725",
".. c #EA6D2B",
"X. c #E97628",
"o. c #F17727",
"O. c #EA7A32",
"+. c #905647",
"@. c #907046",
"#. c #A7724C",
"$. c #847662",
"%. c #897A74",
"&. c #BF7969",
"*. c #CC7843",
"=. c #DA7840",
"-. c #D78939",
";. c #EC872B",
":. c #F28927",
">. c #FA962C",
",. c #E88639",
"<. c #F68E31",
"1. c #EB913C",
"2. c #F69C37",
"3. c #EFA63D",
"4. c #F8A135",
"5. c #9C8450",
"6. c #BC8745",
"7. c #AB8556",
"8. c #988570",
"9. c #D5934B",
"0. c #D58B53",
"q. c #D89659",
"w. c #E68E46",
"e. c #E6944A",
"r. c #EC994B",
"t. c #F5A846",
"y. c #F3AC51",
"u. c #F5B65A",
"i. c #C69D6D",
"p. c #CCA86D",
"a. c #F3B365",
"s. c #F8C25F",
"d. c #F6C56C",
"f. c #F4C676",
"g. c #3C5780",
"h. c #496589",
"j. c #566884",
"k. c #557487",
"l. c #546D94",
"z. c #587798",
"x. c #647D8C",
"c. c #7B7D86",
"v. c #667B97",
"b. c #597AA2",
"n. c #578190",
"m. c #65818A",
"M. c #678795",
"N. c #73899A",
"B. c #5B82A4",
"V. c #638AA4",
"C. c #798CA4",
"Z. c #6997AB",
"A. c #7B92AE",
"S. c #6D9DB3",
"D. c #6A9AB6",
"F. c #7898B3",
"G. c #6BA1AF",
"H. c #6FA3B8",
"J. c #71A3B5",
"K. c #76AAB6",
"L. c #73A4BA",
"P. c #76AABB",
"I. c #7AACBC",
"U. c #74ACC1",
"Y. c #7DB5C4",
"T. c #7BB9C7",
"R. c #7CBCCA",
"E. c #78C1CE",
"W. c #91939B",
"Q. c #A49C93",
"!. c #AEA79B",
"~. c #8596AE",
"^. c #8999B3",
"/. c #91A4B6",
"(. c #9BBBBF",
"). c #A2A8B1",
"_. c #B4B8BA",
"`. c #CDBA9B",
"'. c #D1BDA9",
"]. c #F8D690",
"[. c #DFC0A3",
"{. c #F7E4B4",
"}. c #8CA6C1",
"|. c #92A6C5",
" X c #96A8C6",
".X c #9BA9C6",
"XX c #95ACCC",
"oX c #9AAFCD",
"OX c #85BDC6",
"+X c #83BDCC",
"@X c #95B4CA",
"#X c #9BB4CC",
"$X c #A2B1CA",
"%X c #B1B7CA",
"&X c #A5BDD7",
"*X c #89C2CE",
"=X c #97CAD5",
"-X c #A9C7DA",
";X c #B2CCD2",
":X c #B7DFE6",
">X c #B7E3E8",
",X c #C7CBCB",
"<X c #C0CED0",
"1X c #CCD6D6",
"2X c #D3DADC",
"3X c #FAEDCB",
"4X c #F9F4D8",
"5X c #D3DEE3",
"6X c #CAE9EE",
"7X c #D5E3E7",
"8X c #D9E4E8",
"9X c #E4EBEA",
"0X c #E8F0EF",
"qX c #F6F6EA",
"wX c #EDF3F4",
"eX c #ECF4F8",
"rX c #F3F6F4",
"tX c #F4FAF6",
"yX c #F9FBF4",
"uX c #F5FAF9",
"iX c #FAFBF9",
/* pixels */
"                                                                                                    ",
"                                                                                                    ",
"                                                .                                                   ",
"                                                *.J                                                 ",
"                                            $ r e._ 5 .                                             ",
"                                          X 7.t.<...` 5 .                                           ",
"                                          R u.r.1.,.| _ 9                                           ",
"                                        X p.4XqXqX8X,X&.+.                                          ",
"                                        b qXrXuXtX7X&X&X/.-                                         ",
"                                        n tXtXQ.+.+.S &X|.:                                         ",
"                                        2 W.).R t.y.) N.V #                                         ",
"                                      # 7XN.z.W u.a.] g j.^.@                                       ",
"                                      ).uXM.OXM [ X.e k.j.XXB                                       ",
"                                    # 1XtXM.*XI.M m V.z.j. Xv.                                      ",
"                                  c Z _.1XA H.G.J.Z.V.h.V ~.v.d <                                   ",
"                                2 6XZ 7.-.e ;XQ.6.-.&./.M ( T a l.#                                 ",
"                                N.L.j q.4.I wX'.<.:.q.&X%.o.^ a h.p                                 ",
"                                M.H.x ) { e ).8.( ) #.C.m ! L p l.d                                 ",
"                              g K.H.j 9.2.I rX[.<.:.9.&X8.O.! f l.l 1                               ",
"                            X <XK.K.B 9.2.R wX'.1.;.q.&XS O.! d l.l A.X                             ",
"                            n 8XG.G.z Q.!.C n.n.m.m.k.x N c.S d l.l /.a                             ",
"                            S 8XI.H.x 5XiXm.R.T.OX+XU.b.j.#XA.d l.l |.v                             ",
"                          n wX7XP.H.x 2XrXM.Y.T.R.T.L.z.j.@XA.d l.l |.}.1                           ",
"                        c 8XuX7XI.H.x 1XuXx.Y.P.Z.Z.S.z.j.XXF.d l.k |.XX/.<                         ",
"                      , 9X0XtX7XI.L.V 5XuXm.*XM./ W A z.k.#XA.d l.l |.XXXX^.- .                     ",
"                      %XrX9XwX2XI.D.x 1XeXm.Y.M.I T C z.j.#XA.d l.l |.XXXXXX~.+                     ",
"                      1XyXwXtX5XI.L.x 5XiXm.R.T.I.K.L.z.j.#XF.d l.l |.oXXXoXXX#                     ",
"                      1XtXwXtX5XI.S.x 5XuXm.T.T.OXT.P.z.j.#X~.d l.k  XoXXXoXXX#                     ",
"                  S ,X0XrX9XeX5XP.D.z $.8.8 E.E.R.+XU.b.b +.e d l.v |.XXXXoXXXC.N                   ",
"                X _.yXrXuXrXuX8XI.S.h ! o.q V N N N b f 0 ' G u l.k  XoXoXoXoX.Xx..                 ",
"                # rXrXrXyXwXqX2XK.S.g %  .F ,.O.O.O.O.| F E o < l.V .X$X$X$X$X.X.X<                 ",
"                @.e.w.w.w.w.w.0.i.0.e   * 4 X. .......` 8 O   w *.G *.=.=.=.| | | q                 ",
"                / o.o.o.X.X.o. .w.o.D     . Q ^ ^ ^ ^ ~ O     R X.H ' .. . . . . .7                 ",
"                8 K J P K D K 7 T _ 4       u g d d u >       8 _ 9 q F F D D q F 3                 ",
"                    - i i y     . *         k.#X}.F.b.h         &     - i y > @ .                   ",
"                  , (.=XP.Z.h.#             - h.h.x k -             1 @XY.U.B.h.#                   ",
"                # 1X6X>X*XH.B.h.X             ; +.Y ;             # <X>X=X*XD.b.V +                 ",
"                C >X=X=XT.G.l.x u               % O               C -XOX+XY.B.h.g.u                 ",
"                p Z k.M.Z.z.g i -                                 g h.k.M.V.Z i y -                 ",
"                t ( ( i.<X'.! G 9                                 0 ( { `.1Xi.Q G 3                 ",
"                5.4.4.d.yX3X<.o.D                                 U >.4.{.iX].>.o.5                 ",
"                @.4.y.{.yX4Xd.o.L                                 U 4.f.4XyX3Xs...5                 ",
"                & ( t.{.yX3Xy._ O                                 % -.y.3XyX].r.E .                 ",
"                  o ] y.{.u.[ $                                     4 X.d.{.2.] .                   ",
"                    $ ;.].:.4                                         7 1.d.X.%                     ",
"                      6 s.W .                                         . W 3.6 .                     ",
"                      O } $                                             = { $                       ",
"                                                                                                    ",
"                                                                                                    ",
"                                                                                                    "
};
