/* XPM */
static char *Group_41730501999[] = {
/* columns rows colors chars-per-pixel */
"50 50 159 2 ",
"   c #000000",
".  c #050609",
"X  c #07080B",
"o  c #09090B",
"O  c #0E0F12",
"+  c #131315",
"@  c #15151A",
"#  c #18171B",
"$  c #15181A",
"%  c #19191C",
"&  c #171320",
"*  c #1B1C22",
"=  c #1F212B",
"-  c #242525",
";  c #282727",
":  c #23232B",
">  c #27292E",
",  c #2A2A2B",
"<  c #362423",
"1  c #2A2B34",
"2  c #2B2C39",
"3  c #2F3030",
"4  c #333334",
"5  c #373837",
"6  c #34353B",
"7  c #383939",
"8  c #471B14",
"9  c #581F1C",
"0  c #4E2018",
"q  c #562820",
"w  c #413E3F",
"e  c #593B35",
"r  c #313340",
"t  c #363841",
"y  c #3B3C43",
"u  c #353848",
"i  c #3B3B4A",
"p  c #593B4C",
"a  c #3F4150",
"s  c #434345",
"d  c #4E4B47",
"f  c #43444A",
"g  c #4D4D4D",
"h  c #454657",
"j  c #464857",
"k  c #4C4D55",
"l  c #515252",
"z  c #55555A",
"x  c #5A5B5C",
"c  c #654440",
"v  c #6C4A44",
"b  c #795140",
"n  c #605E5C",
"m  c #494D68",
"M  c #4F5361",
"N  c #545562",
"B  c #5E5E61",
"V  c #565A6E",
"C  c #5C5E68",
"Z  c #5F636B",
"A  c #5D6275",
"S  c #5F637B",
"D  c #646465",
"F  c #63646A",
"G  c #6B6C6C",
"H  c #646571",
"J  c #6A6B71",
"K  c #62657D",
"L  c #696B78",
"P  c #737375",
"I  c #76777C",
"U  c #7B7B7C",
"Y  c #BD6354",
"T  c #3A4782",
"R  c #3969B4",
"E  c #3E73BE",
"W  c #5C6B85",
"Q  c #6B6E85",
"!  c #6F7482",
"~  c #66768E",
"^  c #68768E",
"/  c #747580",
"(  c #7C7D84",
")  c #797B8B",
"_  c #787A94",
"`  c #7272A4",
"'  c #7E8287",
"]  c #828383",
"[  c #8B8A84",
"{  c #818288",
"}  c #8C8C8C",
"|  c #8F908E",
" . c #818497",
".. c #8D8E92",
"X. c #83869B",
"o. c #8A8C98",
"O. c #949495",
"+. c #989997",
"@. c #95959B",
"#. c #9C9C9D",
"$. c #8386A2",
"%. c #878AA3",
"&. c #8B8DA8",
"*. c #8E91A6",
"=. c #9698A1",
"-. c #9B9BA1",
";. c #9598A8",
":. c #9B9EB2",
">. c #BD9CA5",
",. c #9FA0A4",
"<. c #9EA2AE",
"1. c #A2A2A4",
"2. c #A3A4AC",
"3. c #A8AAA8",
"4. c #A5A8B6",
"5. c #ACADB2",
"6. c #A4A9B9",
"7. c #AAADBC",
"8. c #AFB1B9",
"9. c #B3B3B6",
"0. c #BAB9B6",
"q. c #B5B7BE",
"w. c #BCBCBD",
"e. c #CD8A80",
"r. c #C6A6A4",
"t. c #A8ADC1",
"y. c #ADB2C2",
"u. c #B2B5C3",
"i. c #BEBFC3",
"p. c #B5B9C9",
"a. c #BFC0C0",
"s. c #BFC2D0",
"d. c #C2C2C4",
"f. c #C3C3CB",
"g. c #C7C9CF",
"h. c #CACACA",
"j. c #C0C2D0",
"k. c #C6C8D2",
"l. c #CACAD3",
"z. c #D4D5D5",
"x. c #DADAD6",
"c. c #D4D5DA",
"v. c #D6DADE",
"b. c #DADBDA",
"n. c #F3E8DD",
"m. c #D6DAE0",
"M. c #DEDFE3",
"N. c #DCDEE8",
"B. c #EADEE0",
"V. c #E1E2E5",
"C. c #EAEBED",
"Z. c #EEEEF1",
"A. c #EFF1F4",
"S. c #F3F4F4",
"D. c #FDF6F4",
"F. c #FDF8F5",
"G. c #F7F7F9",
"H. c #F7F8F9",
"J. c #FDFDFD",
/* pixels */
"                                                                                                    ",
"                                                                                                    ",
"                                                                                                    ",
"                                                                                                    ",
"                                                                                                    ",
"                                          7 l l l l g +                                             ",
"                              l ] ] G X D z.J.J.J.J.J.O.o                                           ",
"                            s C.h.F : f M.J.J.J.J.J.J.J.} .                                         ",
"                          s G.a.N p 6 H { O.} O.O.} | | | 3                                         ",
"                        ; J.C.s ,.+ ( x.9.#.1.#.1.#.h.h.+.l 5                                       ",
"                        ; J.C @.! . ) f.x         X z.b.  + }                                       ",
"                        ; J.N 9.M 6 t 4 x           s l   + | .                                     ",
"                        ; J.z 8.M 6 ' I x                 + |                                       ",
"                        ; J.k 2.6 $ a 7 x                 # |                                       ",
"                        ; H.k 1.=   7 <.x                 | %                                       ",
"                        - g x , x U O ' #..           + l w                                         ",
"                        - Z.z B ... 7 $ @.2.k         3.% 3 .                                       ",
"                        - B.2 / ; d 7 ..O J ..O.O.+.#.4 7 a.[ .                                     ",
"                        - M.1 k p e.r.s 5.U U ] ] [ { +.D d.F.p .                                   ",
"                        - M.> & T ` V.b., > f P F F P } D a.F.>.<                                   ",
"                        ; M.> 9 Y e.H.J.-  .Z W E E ~ @.G w.J.n.b                                   ",
"                        - @.@ Q D.G.G.I : *.C W R R ^ +.D F S.J.b.4                                 ",
"                        ; x : :.J.J.-.X o.v.F O.' { @.} U O 4.A.J.J.7                               ",
"                        ; x 2 k.J.l.# f q.9.=.o.i N ..,.9.4 t 7.G.J.@.                              ",
"                        % y 2 k.J.f.. ;.O.  1.J.$ P J.- G | O K u.5.F s                             ",
"                          . 1 f.A.i.. N l   x } 8 v } + 4 F   @ j o...l .                           ",
"                          . % x J G X V K Q -.0.q c w.-./ :   . + 4 2.G.[                           ",
"                            % F ] x   * = 4 x x 0 e n y *         M N N.g.                          ",
"                            r y.J.V.s K y.c.J.J.3.z.J.m.V         + L ;.6                           ",
"                            # %.t.7.C C.J.J.J.J.J.J.J.J.s.+       . o o                             ",
"                              o i : I J.J.H.7.S A g.H.J.J.G .                                       ",
"                                  X ) 7.8.<.1   X i k.J.J.f.                                        ",
"                                  X *.J.J.V.*   . : s.J.H.s..                                       ",
"                                  . &.J.J.V.*     : j.J.H.s.                                        ",
"                                $ . *.J.J.V.*     : j.J.A.s.                                        ",
"                            . * p X X.J.H.-.+     @ F ] Y D .                                       ",
"                          . k Q * > C { G +       + j P U g                                         ",
"                          X &.S u m p.@.7         * &.A.J.l                                         ",
"                          . $.r * + : @         . + h ) [ ,                                         ",
"                          X _ t.o.                * ' A.J.k                                         ",
"                              X .                 % ^ q.d.J +                                       ",
"                                                  o h 6.u.u.Z                                       ",
"                                                    X : : ; @                                       ",
"                                                                                                    ",
"                                                                                                    ",
"                                                                                                    ",
"                                                                                                    ",
"                                                                                                    ",
"                                                                                                    ",
"                                                                                                    "
};
