/* XPM */
static char *Component_41730500914[] = {
/* columns rows colors chars-per-pixel */
"50 50 191 2 ",
"   c #000000",
".  c #080706",
"X  c #090807",
"o  c #0C0B0A",
"O  c #150E04",
"+  c #110F0D",
"@  c #12100E",
"#  c #1B150C",
"$  c #151412",
"%  c #191714",
"&  c #1C1A14",
"*  c #1D1C1A",
"=  c #261B0E",
"-  c #231D13",
";  c #201F1C",
":  c #272117",
">  c #2B2216",
",  c #24221C",
"<  c #2B261C",
"1  c #2E291F",
"2  c #322A1C",
"3  c #392D1F",
"4  c #242422",
"5  c #282723",
"6  c #2C2A25",
"7  c #2E2D29",
"8  c #312D22",
"9  c #312F2B",
"0  c #363125",
"q  c #3D3425",
"w  c #34322E",
"e  c #3C362C",
"r  c #3D382D",
"t  c #343431",
"y  c #393631",
"u  c #3D3A34",
"i  c #3D3C39",
"p  c #403728",
"a  c #443C2D",
"s  c #4B3E2F",
"d  c #443D32",
"f  c #483F31",
"g  c #413E39",
"h  c #454035",
"j  c #4C4334",
"k  c #44423C",
"l  c #4C463C",
"z  c #4E483E",
"x  c #504434",
"c  c #504739",
"v  c #534B3C",
"b  c #594D3E",
"n  c #454441",
"m  c #494641",
"M  c #4C4A44",
"N  c #544D44",
"B  c #584F40",
"V  c #534F49",
"C  c #565043",
"Z  c #5B5344",
"A  c #54524C",
"S  c #5B554D",
"D  c #5E584C",
"F  c #585753",
"G  c #5B5953",
"H  c #5F5F59",
"J  c #635B4B",
"K  c #6C5E4E",
"L  c #655F55",
"P  c #685F50",
"I  c #615F59",
"U  c #676050",
"Y  c #6B6253",
"T  c #64625C",
"R  c #6A655C",
"E  c #6D685E",
"W  c #70675A",
"Q  c #766959",
"!  c #726A5C",
"~  c #676460",
"^  c #6C6964",
"/  c #726C63",
"(  c #7B6F60",
")  c #716D68",
"_  c #777063",
"`  c #7B7263",
"'  c #73716B",
"]  c #7A756D",
"[  c #787771",
"{  c #7D7A73",
"}  c #837A6B",
"|  c #8C7F6F",
" . c #837D73",
".. c #887F74",
"X. c #878175",
"o. c #8C8373",
"O. c #84817B",
"+. c #8D867C",
"@. c #8E887A",
"#. c #938675",
"$. c #93877A",
"%. c #938B7C",
"&. c #9A8E7E",
"*. c #A3927E",
"=. c #8B8780",
"-. c #8C8A83",
";. c #948D83",
":. c #9A8F81",
">. c #938F88",
",. c #979084",
"<. c #9B9283",
"1. c #94928B",
"2. c #9C958A",
"3. c #9F988E",
"4. c #979790",
"5. c #9B9790",
"6. c #9D9991",
"7. c #A29586",
"8. c #A99886",
"9. c #A09788",
"0. c #A1998C",
"q. c #AA9C8C",
"w. c #B09E8B",
"e. c #A49D93",
"r. c #A99F93",
"t. c #B0A08F",
"y. c #A7A197",
"u. c #ABA295",
"i. c #A7A29B",
"p. c #ABA59B",
"a. c #AFA89E",
"s. c #B3A595",
"d. c #B9A792",
"f. c #BAAA97",
"g. c #B2A798",
"h. c #B4A99C",
"j. c #BBAD9D",
"k. c #BEB09F",
"l. c #B4ADA3",
"z. c #B9AEA1",
"x. c #B7B1A6",
"c. c #BCB1A3",
"v. c #B5B3AB",
"b. c #BBB5AB",
"n. c #BDB8AE",
"m. c #BAB7B0",
"M. c #BCBAB1",
"N. c #C0AF9D",
"B. c #C3B29E",
"V. c #C3B4A3",
"C. c #C6B9A7",
"Z. c #CBBAA6",
"A. c #C2B7A8",
"S. c #C5B9AC",
"D. c #CBBCAC",
"F. c #D0BFAB",
"G. c #C3BDB2",
"H. c #C8BFB3",
"J. c #D2C1AF",
"K. c #C6C0B6",
"L. c #CAC1B5",
"P. c #C5C3BA",
"I. c #CCC6BC",
"U. c #CEC8BC",
"Y. c #D3C4B3",
"T. c #D2C6B9",
"R. c #D3CABD",
"E. c #DACCBD",
"W. c #E1D1BD",
"Q. c #CBCAC1",
"!. c #D4CDC2",
"~. c #D9CFC1",
"^. c #D5D0C6",
"/. c #DBD1C4",
"(. c #D5D3CA",
"). c #DDD6CB",
"_. c #DDD9CE",
"`. c #E4D5C4",
"'. c #E8D7C3",
"]. c #ECDBC5",
"[. c #E2D7C9",
"{. c #ECDDCC",
"}. c #F0DFCC",
"|. c #E3DCD3",
" X c #F1E1CD",
".X c #E6E1D7",
"XX c #EFE1D1",
"oX c #EFE5D9",
"OX c #F4E5D3",
"+X c #F9E7D3",
"@X c #F8E8D5",
/* pixels */
"            . -.[ .                                                                                 ",
"            X u k .                       o $         % X                                           ",
"          . + 6 o o                       $ ,     * M ^ 7                                           ",
"          X i T + @           . w $       X o . .  .v.>.M X                                         ",
"        . H v.T o .           M >.A           o g H.z.:.k .                                         ",
"        % m.^.-.@             ) p.)         . u $.2.:...y                                           ",
"        4 M.(.v.7             $ ^ 9         , z.u.J r / k .                                         ",
"        4 Q.Q.P.F                         X >.c.:.< + y 6 . . X 4 6 , $ X . .                       ",
"        $ m.(.Q.^ X                       g H.A.W % . ; # + ; e N m g e 6 4 * & * , ; % + .         ",
"        o 4.Q.Q.-.@                       5 5.=.e . . ; 5 g y r d d l c l V J ^ )  .{ T V u 6 ; o . ",
"        . ~ P.Q.0.& o                     . 6 w ; X X 5 >.m.+._ L L _  .+.;.2.2.,.;.>.;.+...{ ^ N u ",
"          A P.Q.r., , .                       $ g + %  .G._.|.^.v.e.e.e.e.2.2.=.2.;.;.:.>.;.:.>.+.] ",
"          7 4.M.r.e u X             . * o     + w + ~ v.v.v.G.Q.Q.S.r.e.e.e.u.2.3.;.;.;.;.;.>.+.+.X.",
"          . w -.2.d e         . X X t { 9       o 9 P.G.G.l.l.l.l.b.m.r.y.e.e.2.2.2.2.,.;.%.X.%.;.e.",
"              * M u , .   . 7 G 1.M 5 ~ 5       . I G.m.v.l.m.n.b.p.y.a.y.p.y.y.2.2.2.,.,.;.:.@.,.p.",
"                . @ .     $ 5.m.m.F . . .       ; m.m.m.G.b.b.b.l.l.a.h.b.n.p.i.0.r.2.2.;.;.%.,.u.R ",
"                          + -.m.O.i .         o O.P.K.M.v.v.a.b.x.x.p.x.a.n.a.a.y.a.y.u.9.9.u.%.D r ",
"                          . i { 7 $ .   .   X T n.M.M.e.+.{ +.b.x.x.l.x.l.a.y.a.a.} X.%.@.X.@.! q q ",
"                  $ %       . % . .   o T * G G.P.G.i.L h M E K.R.b.l.l.h.e.y.p.u.q h c v j j v a h ",
"                  t n .             . 6 { n m.!.M.K.^ u g m U H._.K.a.x.3./ @.l.I.h a 0 q q j p q p ",
"  . .             % 4               o % G ] (.(.P.l.e < u h ^ h.R._.k.G.%.v ` a.^.c > q j p q q j j ",
"$ w 7 ; .                         $ % *  .M.M.P.M.6.8 - 1 r ;.a.S..Xv.M.1.r [ 4.^.@.p q q j q q q h ",
"7 G F k o               $ %       . . M M.K.I.G.n.;., = 2 d 0.z.n.).x.v.4._ i.v.U.b.U r j j q j q h ",
"z A A y o             * ' T .       o G G.K.P.K.H.X.- = > s <.p.c.`.c.g.l.x.a.a.+.0.] b b x v j h q ",
"u u , $               6 i.[ $   u k . H K.I.I.H.K.:.> = 3 x #.j.c./.k.g.x.l.p.%.0 r Z U B Z U J x p ",
"; * .                 $ A k + 6 e.2.@ ] P.I.I.b.G.u.0 - x x &.j.V.W.k.x.l.p.y.U 1 2 q a j v U ! Q j ",
"  .                     X o X { (.i.m l.H.K.!.G.G.D.P p b c 8.z.U.L.%.h.l.x.@.r < 8 a a f C U ` #.J ",
"                          . 7 n.G. .x.I.M.K.!.H.L.G.7.( x K z.E.'.C.o.u.h.%.r & - < 0 a v v U } &.} ",
"                          * v.K.+.S x.U.I.G.I.G.g.:.:.C.B.D.E.L.D.C.x.x.a.! 2 & - 0 r a j Z J @.&.@.",
"                          ; 4.O.F % v.S.!.!.~.R.G.V.H.z.V.C.V.V.s.u.C.l.x.C & & 8 1 0 r j Z ` @.@.%.",
"            . $ o         X w m $ X b.p.G.H.^.~.G.F.C.D.N.V.V.A.j.j.k.x.e.v & < 1 2 2 j v U %.%.%.o.",
"              9 *                 % b.:.H.H.~.[.H.S.D.V.D.j.V.z.k.V.x.h.4.a - 1 < 2 q v v } &.%.@.@.",
"              X .                 6 a.5.Q.H.T.E.S.j.g.C.D.N.N.A.| :.j.V.:.1 ; 1 < 8 a x J %.2.%.%.o.",
"                                  6 l.e.~.R.r.#.S.&.K V.B.N.C.V.f W z.l...# = ; < p p d Y :.<.&.o.J ",
"                                  * x.p.|.H.j.%.A.f.7.D.V.V.N.z...q.h.r.} O = ; 6 0 a d U %.<.&.` 2 ",
"                                  . i.L.oXS.|.[.S.j.F.V.V.V.C.z.C.V.z.z.;.- - < 8 0 f c b @.,.@.` D ",
"                                    i.^.~.H.~.XXF.H.B.V.V.N.B.V.z.s.z.z.0.0 > < 8 8 j v v o.2.&.#.&.",
"                  . $ ; $         $ i.(.).G.~.{.F.C.V.V.B.N.B.z.f.N.g.s.r.d > 8 0 q j v U %.<.&.#.o.",
"                  . t T t .       5 v..X[.H.E.'.F.Z.V.N.z.A.g.j.z.N.g.z.p.J ; 2 0 r h b o.&.<.%.o.K ",
"                    o * %         @ ~ |.~.K.W.Z.N.Y.V.V.z.S.g.B.N.z.j.g.z.} 0 8 a r h ! 9.&.%.X.J j ",
"                                  o * 5.[.Y.'.Y.B.B.B.b.S.b.h.f.f.k.d.u.u.2.b r r h c %.9.&.o.J j q ",
"                                    o [ XX/. XW.J.k.C.S.2.[ ;.s.j.u.c.g.u.p.0.o.j h b 2.9.o.j h j p ",
"                                    X  .}.}.+XW.B.J.k.2.r & > b g.g.k.j.t.h.q.c.Y.A.k.Z j j q j j q ",
"                                    + %.}.+X}.}.J.f.C.! + 6 - = ` k.u.s.q.g.h.q.u.R.E.0 h r x x p p ",
"                          * X       . ^ ].@XOX].f.f.k.D - 6 : q J s.} q.W o.t.t.*.J.Y.q p 3 j j j j ",
"                          F *         l E. X@X].B.B.k.W 8 9 r j b &.Q *.8.u.s.q.s.J.d.q p h j p j j ",
"                          5 o         , K.}. X'.J.B.K.} 0 h p j b %.} #.f.d.t.w.8.c.} q p j p h p j ",
"              X $                       u.oX].@XJ.B.k.*.v p h j J 9.#.#.s.s.d.f.*.k.J q p a j p p j ",
"            o V ^ m %                   R /.[.@XW.V.j.N.} x x j } f.7.7.8.t.s.B.t.d.x p p j j p j j ",
"        . $ n >.-.1.w                   o S p.T.`.W.B.j.s.o.c j $.k.g.s.8.t.t.d.B.#.p p p p j x p j "
};
